<svg width="48" height="48" viewBox="0 0 48 48" fill="none" xmlns="http://www.w3.org/2000/svg">
  <rect width="48" height="48" rx="8" fill="#3B82F6"/>
  <path d="M14 12H34C35.1 12 36 12.9 36 14V34C36 35.1 35.1 36 34 36H14C12.9 36 12 35.1 12 34V14C12 12.9 12.9 12 14 12Z" fill="white"/>
  <path d="M21 24L18 21M18 21L15 18M18 21L15 24M18 21L18 30" stroke="#3B82F6" stroke-width="2" stroke-linecap="round" stroke-linejoin="round"/>
  <path d="M27 24L30 21M30 21L33 18M30 21L33 24M30 21L30 30" stroke="#3B82F6" stroke-width="2" stroke-linecap="round" stroke-linejoin="round"/>
</svg>